<svg width="320" height="32" viewBox="0 0 320 32" fill="none" xmlns="http://www.w3.org/2000/svg">
<path d="M29.6313 0H2.3625C1.05625 0 0 1.03125 0 2.30625V29.6875C0 30.9625 1.05625 32 2.3625 32H29.6313C30.9375 32 32 30.9625 32 29.6938V2.30625C32 1.03125 30.9375 0 29.6313 0ZM9.49375 27.2687H4.74375V11.9937H9.49375V27.2687ZM7.11875 9.9125C5.59375 9.9125 4.3625 8.68125 4.3625 7.1625C4.3625 5.64375 5.59375 4.4125 7.11875 4.4125C8.6375 4.4125 9.86875 5.64375 9.86875 7.1625C9.86875 8.675 8.6375 9.9125 7.11875 9.9125ZM27.2687 27.2687H22.525V19.8438C22.525 18.075 22.4937 15.7937 20.0562 15.7937C17.5875 15.7937 17.2125 17.725 17.2125 19.7188V27.2687H12.475V11.9937H17.025V14.0813H17.0875C17.7188 12.8813 19.2688 11.6125 21.575 11.6125C26.3813 11.6125 27.2687 14.775 27.2687 18.8875V27.2687Z" fill="white"/>
<g clip-path="url(#clip0_92_4371)">
<path fill-rule="evenodd" clip-rule="evenodd" d="M94.4578 8.73058C92.8058 7.15498 90.6011 6.29663 88.3201 6.3319C84.1459 6.3319 80.6008 9.14797 79.3368 12.94C78.6666 14.9271 78.6666 17.0789 79.3368 19.0661H79.3427C80.6125 22.8522 84.1518 25.6683 88.3259 25.6683C90.4806 25.6683 92.3305 25.1172 93.7641 24.1437V24.1398C95.4514 23.0228 96.6038 21.2649 96.9624 19.2778H88.3201V13.1165H103.412C103.6 14.1865 103.688 15.28 103.688 16.3676C103.688 21.2341 101.949 25.3484 98.9228 28.1351L98.926 28.1375C96.2745 30.5833 92.6353 32.0001 88.3201 32.0001C82.2704 32.0001 76.7382 28.5902 74.0221 23.1873C71.7527 18.6663 71.7527 13.3398 74.0221 8.81881C76.7382 3.41003 82.2704 0.000101659 88.3201 0.000101659C92.2943 -0.0469312 96.1334 1.44636 99.0259 4.16251L94.4578 8.73058Z" fill="white"/>
</g>
<path d="M176 16C176 7.16344 168.837 0 160 0C151.163 0 144 7.16344 144 16C144 23.9859 149.851 30.6053 157.5 31.8056V20.625H153.438V16H157.5V12.475C157.5 8.465 159.889 6.25 163.543 6.25C165.293 6.25 167.125 6.5625 167.125 6.5625V10.5H165.108C163.12 10.5 162.5 11.7334 162.5 13V16H166.938L166.228 20.625H162.5V31.8056C170.149 30.6053 176 23.9859 176 16Z" fill="white"/>
<path fill-rule="evenodd" clip-rule="evenodd" d="M232 0C223.167 0 216 7.16703 216 16C216 24.833 223.167 32 232 32C240.816 32 248 24.833 248 16C248 7.16703 240.816 0 232 0ZM242.568 7.37527C244.477 9.70065 245.623 12.6681 245.657 15.8785C245.206 15.7918 240.694 14.872 236.147 15.4447C236.043 15.2191 235.957 14.9761 235.853 14.7332C235.575 14.0738 235.263 13.397 234.95 12.7549C239.983 10.7072 242.273 7.75705 242.568 7.37527ZM232 2.36009C235.471 2.36009 238.646 3.66161 241.059 5.7961C240.816 6.14317 238.75 8.90239 233.892 10.7245C231.653 6.61171 229.171 3.24512 228.79 2.72451C229.813 2.48156 230.889 2.36009 232 2.36009ZM226.187 3.64425C226.551 4.13015 228.981 7.5141 231.254 11.5401C224.868 13.2408 219.228 13.2061 218.62 13.2061C219.505 8.9718 222.369 5.44902 226.187 3.64425ZM218.325 16.0174C218.325 15.8785 218.325 15.7397 218.325 15.6009C218.915 15.6182 225.544 15.705 232.364 13.6573C232.764 14.4208 233.128 15.2017 233.475 15.9826C233.302 16.0347 233.111 16.0868 232.937 16.1388C225.892 18.4121 222.143 24.6247 221.831 25.1453C219.662 22.7332 218.325 19.5228 218.325 16.0174ZM232 29.6746C228.842 29.6746 225.926 28.5987 223.618 26.7939C223.861 26.2907 226.638 20.9458 234.343 18.256C234.377 18.2386 234.395 18.2386 234.43 18.2213C236.356 23.2017 237.137 27.3839 237.345 28.5813C235.696 29.2928 233.892 29.6746 232 29.6746ZM239.618 27.3319C239.479 26.4989 238.75 22.5076 236.963 17.5965C241.25 16.9197 244.998 18.0304 245.466 18.1866C244.876 21.987 242.69 25.2668 239.618 27.3319Z" fill="white"/>
<path d="M304 2.88125C308.275 2.88125 308.781 2.9 310.463 2.975C312.025 3.04375 312.869 3.30625 313.431 3.525C314.175 3.8125 314.713 4.1625 315.269 4.71875C315.831 5.28125 316.175 5.8125 316.463 6.55625C316.681 7.11875 316.944 7.96875 317.013 9.525C317.088 11.2125 317.106 11.7188 317.106 15.9875C317.106 20.2625 317.088 20.7688 317.013 22.45C316.944 24.0125 316.681 24.8563 316.463 25.4188C316.175 26.1625 315.825 26.7 315.269 27.2563C314.706 27.8188 314.175 28.1625 313.431 28.45C312.869 28.6688 312.019 28.9313 310.463 29C308.775 29.075 308.269 29.0938 304 29.0938C299.725 29.0938 299.219 29.075 297.538 29C295.975 28.9313 295.131 28.6688 294.569 28.45C293.825 28.1625 293.288 27.8125 292.731 27.2563C292.169 26.6938 291.825 26.1625 291.538 25.4188C291.319 24.8563 291.056 24.0063 290.988 22.45C290.913 20.7625 290.894 20.2563 290.894 15.9875C290.894 11.7125 290.913 11.2063 290.988 9.525C291.056 7.9625 291.319 7.11875 291.538 6.55625C291.825 5.8125 292.175 5.275 292.731 4.71875C293.294 4.15625 293.825 3.8125 294.569 3.525C295.131 3.30625 295.981 3.04375 297.538 2.975C299.219 2.9 299.725 2.88125 304 2.88125ZM304 0C299.656 0 299.113 0.01875 297.406 0.09375C295.706 0.16875 294.538 0.44375 293.525 0.8375C292.469 1.25 291.575 1.79375 290.688 2.6875C289.794 3.575 289.25 4.46875 288.838 5.51875C288.444 6.5375 288.169 7.7 288.094 9.4C288.019 11.1125 288 11.6562 288 16C288 20.3438 288.019 20.8875 288.094 22.5938C288.169 24.2938 288.444 25.4625 288.838 26.475C289.25 27.5313 289.794 28.425 290.688 29.3125C291.575 30.2 292.469 30.75 293.519 31.1562C294.538 31.55 295.7 31.825 297.4 31.9C299.106 31.975 299.65 31.9937 303.994 31.9937C308.338 31.9937 308.881 31.975 310.588 31.9C312.288 31.825 313.456 31.55 314.469 31.1562C315.519 30.75 316.413 30.2 317.3 29.3125C318.188 28.425 318.738 27.5313 319.144 26.4813C319.538 25.4625 319.813 24.3 319.888 22.6C319.963 20.8938 319.981 20.35 319.981 16.0063C319.981 11.6625 319.963 11.1188 319.888 9.4125C319.813 7.7125 319.538 6.54375 319.144 5.53125C318.75 4.46875 318.206 3.575 317.313 2.6875C316.425 1.8 315.531 1.25 314.481 0.84375C313.463 0.45 312.3 0.175 310.6 0.1C308.888 0.01875 308.344 0 304 0Z" fill="white"/>
<path d="M304 7.78125C299.463 7.78125 295.781 11.4625 295.781 16C295.781 20.5375 299.463 24.2188 304 24.2188C308.538 24.2188 312.219 20.5375 312.219 16C312.219 11.4625 308.538 7.78125 304 7.78125ZM304 21.3312C301.056 21.3312 298.669 18.9438 298.669 16C298.669 13.0563 301.056 10.6687 304 10.6687C306.944 10.6687 309.331 13.0563 309.331 16C309.331 18.9438 306.944 21.3312 304 21.3312Z" fill="white"/>
<path d="M314.462 7.45635C314.462 8.51885 313.6 9.3751 312.544 9.3751C311.481 9.3751 310.625 8.5126 310.625 7.45635C310.625 6.39385 311.488 5.5376 312.544 5.5376C313.6 5.5376 314.462 6.4001 314.462 7.45635Z" fill="white"/>
<defs>
<clipPath id="clip0_92_4371">
<rect width="32" height="32" fill="white" transform="translate(72)"/>
</clipPath>
</defs>
</svg>
